# xmcd
# Copyright (C) 1995-1998 Ti Kan
#
# Track frame offsets:
#       150
#       15595
#       32184
#       43568
#       61992
#
# Disc length: 1013 seconds
#
# Revision: 0
# Processed by: cddbd v1.5.2PL0 Copyright (c) Steve Scherf et al.
# Submitted via: CD-Import v1.0
#
DISCID=3703f305
DTITLE=Huck Finn - Huck Finn
DYEAR=09
DGENRE=
TTITLE0=Your Eyes
TTITLE1=Tom's Tale
TTITLE2=Can You Feel My Love
TTITLE3=Space Odyssey
TTITLE4=Champagne And Strawberries
EXTD=
EXTT0=
EXTT1=
EXTT2=
EXTT3=
EXTT4=
PLAYORDER=
